<svg width="368" height="100" viewBox="0 0 368 100" fill="none" xmlns="http://www.w3.org/2000/svg">
<rect width="100" height="100" rx="9" fill="#C3D9E9"/>
<rect x="13" y="13" width="74" height="74" rx="7" stroke="#93B7D2" stroke-width="4"/>
<path d="M100 9.5L88.5 17.5L86.5 85.5H12.5C8.99999 89.5 8.50001 90.5001 2.49998 97C1.99998 97.5417 6.83331 99.6667 7.99998 100H91.5C97.9 100 99.8333 93.3333 100 90V9.5Z" fill="#93B7D2"/>
<circle cx="34.4" cy="48.5999" r="8.39998" fill="white"/>
<rect x="38" y="21" width="4.79999" height="28.7999" fill="white"/>
<rect x="40.4" y="21" width="9.59997" height="7.19998" fill="white"/>
<path d="M129 75H134.328V29.208H152.04V24.6H111.288V29.208H129V75ZM188.582 56.064C188.582 44.688 180.878 36.84 170.222 36.84C159.566 36.84 151.718 44.832 151.718 56.064C151.718 67.296 159.782 75.36 171.59 75.36C177.566 75.36 182.822 73.2 186.206 69.168L183.326 65.856C180.446 69.168 176.342 70.824 171.734 70.824C163.454 70.824 157.406 65.568 156.83 57.648H188.51C188.51 57.072 188.582 56.496 188.582 56.064ZM170.222 41.232C177.638 41.232 183.038 46.416 183.686 53.832H156.83C157.478 46.416 162.878 41.232 170.222 41.232ZM246.219 36.84C239.379 36.84 233.979 39.936 231.243 44.832C228.939 39.504 224.043 36.84 217.779 36.84C211.443 36.84 206.547 39.504 203.883 44.04V37.128H198.987V75H204.099V55.128C204.099 46.488 209.067 41.448 216.771 41.448C223.683 41.448 227.715 45.552 227.715 53.544V75H232.827V55.128C232.827 46.488 237.723 41.448 245.499 41.448C252.339 41.448 256.371 45.552 256.371 53.544V75H261.483V53.04C261.483 42.168 255.435 36.84 246.219 36.84ZM294.859 36.84C288.595 36.84 283.339 39.576 280.243 44.616V37.128H275.347V88.968H280.459V67.872C283.627 72.768 288.811 75.36 294.859 75.36C305.659 75.36 313.723 67.584 313.723 56.064C313.723 44.616 305.659 36.84 294.859 36.84ZM294.499 70.824C286.435 70.824 280.387 64.92 280.387 56.064C280.387 47.28 286.435 41.304 294.499 41.304C302.491 41.304 308.611 47.28 308.611 56.064C308.611 64.92 302.491 70.824 294.499 70.824ZM339.624 75.36C350.712 75.36 358.848 67.296 358.848 56.064C358.848 44.832 350.712 36.84 339.624 36.84C328.536 36.84 320.328 44.832 320.328 56.064C320.328 67.296 328.536 75.36 339.624 75.36ZM339.624 70.824C331.56 70.824 325.512 64.92 325.512 56.064C325.512 47.208 331.56 41.304 339.624 41.304C347.688 41.304 353.664 47.208 353.664 56.064C353.664 64.92 347.688 70.824 339.624 70.824Z" fill="#93B7D2"/>
</svg>
