<svg width="77" height="76" viewBox="0 0 77 76" fill="none" xmlns="http://www.w3.org/2000/svg">
<path d="M69.4864 0H6.87228C3.07683 0 0 3.06237 0 6.84V69.16C0 72.9376 3.07683 76 6.87228 76H69.4864C73.2819 76 76.3587 72.9376 76.3587 69.16V6.84C76.3587 3.06237 73.2819 0 69.4864 0Z" fill="#C3D9E9"/>
<path d="M61.087 9.88H15.2717C12.3197 9.88 9.92664 12.2619 9.92664 15.2V60.8C9.92664 63.7382 12.3197 66.12 15.2717 66.12H61.087C64.039 66.12 66.4321 63.7382 66.4321 60.8V15.2C66.4321 12.2619 64.039 9.88 61.087 9.88Z" stroke="#93B7D2" stroke-width="4"/>
<path d="M76.3587 7.22L67.5774 13.3L66.0503 64.98H9.54483C6.87227 68.02 6.49049 68.7801 1.90895 73.72C1.52715 74.1317 5.21782 75.7467 6.10867 76H69.8682C74.7552 76 76.2314 70.9333 76.3587 68.4V7.22Z" fill="#93B7D2"/>
<path d="M26.2674 43.3199C29.8098 43.3199 32.6815 40.4617 32.6815 36.9359C32.6815 33.4101 29.8098 30.5519 26.2674 30.5519C22.725 30.5519 19.8533 33.4101 19.8533 36.9359C19.8533 40.4617 22.725 43.3199 26.2674 43.3199Z" fill="white"/>
<path d="M32.6815 15.96H29.0163V37.8479H32.6815V15.96Z" fill="white"/>
<path d="M38.1793 15.96H30.8489V21.432H38.1793V15.96Z" fill="white"/>
</svg>
