<svg width="849" height="478" viewBox="0 0 849 478" fill="none" xmlns="http://www.w3.org/2000/svg">
<g clip-path="url(#clip0_7_7)">
<path d="M849 0H0V478H849V0Z" fill="white"/>
<path d="M0.317933 0H60.4948C60.4948 0 147.81 18.8916 86.4534 43.687C25.0964 68.4824 152.53 64.9403 124.211 100.362C95.8923 135.783 174.949 135.784 205.627 123.976C236.306 112.169 255.186 183.012 191.469 203.085C127.752 223.158 436.896 408.532 294.124 406.17C151.351 403.808 231.413 478 231.413 478H0L0.317933 0Z" fill="url(#paint0_linear_7_7)"/>
<path d="M849 0.578466C849 0.578466 749.264 -6.48575 748.084 28.8362C746.903 64.1582 874.337 103.01 811.801 95.9461C749.264 88.8819 751.624 106.543 762.243 127.735C772.862 148.928 788.201 164.235 762.243 179.541C736.284 194.847 682.007 233.701 703.246 265.492C724.485 297.283 789.382 345.557 733.924 365.571C678.467 385.585 573.452 289.04 605.31 365.571C637.169 442.102 641.889 450.344 613.57 457.409C585.252 464.474 566 478 566 478L849.68 477.753L849 0.578466Z" fill="url(#paint1_linear_7_7)"/>
</g>
<defs>
<linearGradient id="paint0_linear_7_7" x1="8.63774" y1="-109.94" x2="295.004" y2="406.533" gradientUnits="userSpaceOnUse">
<stop stop-color="#1D7EC9"/>
<stop offset="1" stop-color="#93B7D2"/>
</linearGradient>
<linearGradient id="paint1_linear_7_7" x1="732.804" y1="506.202" x2="1021.61" y2="61.8774" gradientUnits="userSpaceOnUse">
<stop stop-color="#1D7EC9"/>
<stop offset="1" stop-color="#C3D9E9"/>
</linearGradient>
<clipPath id="clip0_7_7">
<rect width="849" height="478" fill="white"/>
</clipPath>
</defs>
</svg>
